<svg xmlns="http://www.w3.org/2000/svg" viewBox="0 0 340 56" width="340" height="56">
  <defs>
    <linearGradient id="btnGrad" x1="0%" y1="0%" x2="0%" y2="100%">
      <stop offset="0%" stop-color="#2a0808"/>
      <stop offset="50%" stop-color="#1a0606"/>
      <stop offset="100%" stop-color="#0e0404"/>
    </linearGradient>
  </defs>
  <rect x="4" y="6" width="332" height="46" fill="#000000" opacity="0.5" rx="3"/>
  <rect x="2" y="2" width="336" height="48" fill="#1a0606" rx="4"/>
  <rect x="4" y="4" width="332" height="44" fill="url(#btnGrad)" rx="3"/>
  <rect x="2" y="2" width="336" height="48" fill="none" stroke="#6a1010" stroke-width="2" rx="4"/>
  <rect x="4" y="4" width="332" height="44" fill="none" stroke="#a02020" stroke-width="1" rx="3"/>
  <rect x="2" y="2" width="12" height="12" fill="#a02020" rx="2"/>
  <rect x="326" y="2" width="12" height="12" fill="#a02020" rx="2"/>
  <rect x="2" y="42" width="12" height="8" fill="#a02020" rx="2"/>
  <rect x="326" y="42" width="12" height="8" fill="#a02020" rx="2"/>
  <!-- Icône clé -->
  <circle cx="20" cy="24" r="7" fill="none" stroke="#c8902a" stroke-width="2.5"/>
  <circle cx="20" cy="24" r="3" fill="#c8902a"/>
  <rect x="25" y="22" width="14" height="3" fill="#c8902a" rx="1"/>
  <rect x="35" y="25" width="3" height="5" fill="#c8902a" rx="1"/>
  <rect x="30" y="25" width="3" height="4" fill="#c8902a" rx="1"/>
  <!-- Texte -->
  <text x="175" y="32" font-family="Georgia, serif" font-size="15" fill="#ff8080" text-anchor="middle" letter-spacing="3" font-weight="bold">QUITTER</text>
</svg>
