<svg xmlns="http://www.w3.org/2000/svg" viewBox="0 0 50 50" width="50" height="50">
  <ellipse cx="25" cy="44" rx="12" ry="3" fill="#00000044"/>

  <path d="M15 35 Q5 38 8 28" fill="none" stroke="#d09090" stroke-width="1.5" stroke-linecap="round"/>

  <ellipse cx="25" cy="33" rx="10" ry="9" fill="#808080"/>
  
  <circle cx="25" cy="22" r="9" fill="#808080"/>
  
  <circle cx="16" cy="15" r="5" fill="#808080"/>
  <circle cx="34" cy="15" r="5" fill="#808080"/>
  <circle cx="16" cy="15" r="3" fill="#d09090" opacity="0.6"/>
  <circle cx="34" cy="15" r="3" fill="#d09090" opacity="0.6"/>

  <circle cx="21" cy="20" r="1.5" fill="#ff0000"/>
  <circle cx="29" cy="20" r="1.5" fill="#ff0000"/>

  <path d="M22 24 L25 28 L28 24" fill="#d09090" opacity="0.8"/>

  <line x1="38" y1="15" x2="38" y2="42" stroke="#503010" stroke-width="1.5"/>
  <path d="M38 10 L35 16 L41 16 Z" fill="#a0a0a0"/> <ellipse cx="18" cy="40" rx="3" ry="2" fill="#808080"/>
  <ellipse cx="32" cy="40" rx="3" ry="2" fill="#808080"/>
</svg>
