<svg xmlns="http://www.w3.org/2000/svg" viewBox="0 0 100 100" width="100" height="100">
  <rect width="100" height="100" fill="#2a1a08"/>
  <rect x="2" y="2" width="96" height="96" rx="4" fill="#1a0f04" stroke="#5c4a1e" stroke-width="1.5"/>

  <!-- Épaules armure bleue -->
  <ellipse cx="50" cy="98" rx="34" ry="16" fill="#2a3a6a"/>
  <rect x="30" y="72" width="40" height="28" rx="3" fill="#3a4a8a"/>
  <rect x="34" y="76" width="32" height="20" rx="2" fill="#2a3a7a"/>
  <line x1="50" y1="76" x2="50" y2="96" stroke="#4a5a9a" stroke-width="1.5"/>
  <line x1="34" y1="86" x2="66" y2="86" stroke="#4a5a9a" stroke-width="1"/>
  <circle cx="36" cy="78" r="1.5" fill="#c8a96e"/>
  <circle cx="64" cy="78" r="1.5" fill="#c8a96e"/>
  <!-- Épaulières -->
  <ellipse cx="27" cy="74" rx="11" ry="7" fill="#3a4a8a" stroke="#2a3a7a" stroke-width="0.8"/>
  <ellipse cx="73" cy="74" rx="11" ry="7" fill="#3a4a8a" stroke="#2a3a7a" stroke-width="0.8"/>
  <ellipse cx="27" cy="74" rx="7" ry="4" fill="#4a5aaa"/>
  <ellipse cx="73" cy="74" rx="7" ry="4" fill="#4a5aaa"/>

  <!-- Cou -->
  <rect x="43" y="60" width="14" height="14" rx="2" fill="#e8c49a"/>

  <!-- Tête -->
  <ellipse cx="50" cy="44" rx="22" ry="24" fill="#e8c49a"/>

  <!-- Casque (même style que le sprite top-down mais de face) -->
  <path d="M28 40 Q28 16 50 16 Q72 16 72 40" fill="#888" stroke="#666" stroke-width="0.8"/>
  <rect x="28" y="38" width="44" height="6" rx="2" fill="#aaa" stroke="#888" stroke-width="0.5"/>
  <!-- Jugulaires -->
  <rect x="27" y="42" width="5" height="18" rx="2" fill="#999"/>
  <rect x="68" y="42" width="5" height="18" rx="2" fill="#999"/>
  <!-- Reflet casque -->
  <path d="M34 20 Q36 16 40 17" fill="none" stroke="#ccc" stroke-width="1.5" stroke-linecap="round" opacity="0.6"/>

  <!-- Yeux -->
  <ellipse cx="40" cy="42" rx="5" ry="4" fill="white"/>
  <ellipse cx="60" cy="42" rx="5" ry="4" fill="white"/>
  <circle cx="41" cy="43" r="3" fill="#3a5aaa"/>
  <circle cx="61" cy="43" r="3" fill="#3a5aaa"/>
  <circle cx="41" cy="43" r="1.5" fill="#111"/>
  <circle cx="61" cy="43" r="1.5" fill="#111"/>
  <circle cx="42" cy="42" r="0.8" fill="white" opacity="0.8"/>
  <circle cx="62" cy="42" r="0.8" fill="white" opacity="0.8"/>

  <!-- Nez -->
  <path d="M48 47 Q50 52 52 47" fill="none" stroke="#c8a070" stroke-width="1" stroke-linecap="round"/>

  <!-- Bouche -->
  <path d="M42 56 Q50 60 58 56" fill="none" stroke="#8a5030" stroke-width="1.5" stroke-linecap="round"/>

  <!-- Épée à droite (cohérent avec le sprite) -->
  <rect x="76" y="30" width="4" height="50" rx="1" fill="#ccc" stroke="#aaa" stroke-width="0.5"/>
  <rect x="71" y="44" width="14" height="3" rx="1" fill="#a88"/>
  <rect x="77" y="26" width="2" height="6" rx="1" fill="#aaa"/>

  <!-- Bouclier à gauche -->
  <path d="M14 36 L24 36 L24 62 Q19 70 14 62 Z" fill="#2a55b0" stroke="#1a4090" stroke-width="1"/>
  <line x1="19" y1="38" x2="19" y2="60" stroke="#4a75f0" stroke-width="1.5"/>
  <line x1="14" y1="49" x2="24" y2="49" stroke="#4a75f0" stroke-width="1.5"/>

  <!-- Coins décoratifs -->
  <path d="M2 2 L12 2 L12 4 L4 4 L4 12 L2 12 Z" fill="#c8902a"/>
  <path d="M98 2 L88 2 L88 4 L96 4 L96 12 L98 12 Z" fill="#c8902a"/>
  <path d="M2 98 L12 98 L12 96 L4 96 L4 88 L2 88 Z" fill="#c8902a"/>
  <path d="M98 98 L88 98 L88 96 L96 96 L96 88 L98 88 Z" fill="#c8902a"/>
</svg>
