<svg xmlns="http://www.w3.org/2000/svg" viewBox="0 0 50 50" width="50" height="50">
  <ellipse cx="25" cy="44" rx="14" ry="4" fill="#00000044"/>

  <rect x="12" y="15" width="4" height="20" rx="1" fill="#606060" transform="rotate(-15 14 25)"/>
  <rect x="10" y="14" width="8" height="2" rx="0.5" fill="#a0a030" transform="rotate(-15 14 25)"/>
  <circle cx="11.5" cy="11.5" r="2" fill="#a0a030" transform="rotate(-15 14 25)"/>

  <ellipse cx="25" cy="32" rx="13" ry="10" fill="#c8a878"/>
  <path d="M14 28 Q18 26 22 28" fill="none" stroke="#a08050" stroke-width="1" stroke-linecap="round" opacity="0.7"/>
  <path d="M28 28 Q32 26 36 28" fill="none" stroke="#a08050" stroke-width="1" stroke-linecap="round" opacity="0.7"/>
  <path d="M13 33 Q17 31 21 33" fill="none" stroke="#a08050" stroke-width="1" stroke-linecap="round" opacity="0.6"/>
  <path d="M29 33 Q33 31 37 33" fill="none" stroke="#a08050" stroke-width="1" stroke-linecap="round" opacity="0.6"/>

  <path d="M36 36 Q44 34 43 26 Q42 20 38 22" fill="none" stroke="#c8a878" stroke-width="3" stroke-linecap="round"/>
  <path d="M36 36 Q44 34 43 26 Q42 20 38 22" fill="none" stroke="#a08050" stroke-width="1" stroke-linecap="round" opacity="0.5"/>

  <circle cx="25" cy="18" r="12" fill="#c8a878"/>
  <path d="M19 12 Q22 10 25 12" fill="none" stroke="#a08050" stroke-width="1" stroke-linecap="round" opacity="0.6"/>
  <path d="M22 8 Q25 6 28 8" fill="none" stroke="#a08050" stroke-width="1" stroke-linecap="round" opacity="0.5"/>

  <polygon points="14,10 11,2 19,8" fill="#c8a878" stroke="#a08050" stroke-width="0.5"/>
  <polygon points="36,10 39,2 31,8" fill="#c8a878" stroke="#a08050" stroke-width="0.5"/>
  <polygon points="14,9 12,4 18,8" fill="#e8a090" opacity="0.8"/>
  <polygon points="36,9 38,4 32,8" fill="#e8a090" opacity="0.8"/>

  <ellipse cx="25" cy="21" rx="6" ry="4" fill="#e8c9a0"/>
  <path d="M23 19 L25 17 L27 19 Q25 20 23 19Z" fill="#e08090"/>
  <path d="M23 20 Q25 22 27 20" fill="none" stroke="#c07080" stroke-width="0.8" stroke-linecap="round"/>

  <ellipse cx="20" cy="16" rx="3.5" ry="3" fill="#f0e080"/>
  <ellipse cx="30" cy="16" rx="3.5" ry="3" fill="#f0e080"/>
  <ellipse cx="20" cy="16" rx="1.2" ry="2.5" fill="#1a1010"/>
  <ellipse cx="30" cy="16" rx="1.2" ry="2.5" fill="#1a1010"/>
  <circle cx="21" cy="15" r="0.8" fill="white" opacity="0.9"/>
  <circle cx="31" cy="15" r="0.8" fill="white" opacity="0.9"/>

  <line x1="13" y1="20" x2="20" y2="21" stroke="#888" stroke-width="0.7" opacity="0.8"/>
  <line x1="13" y1="22" x2="20" y2="22" stroke="#888" stroke-width="0.7" opacity="0.8"/>
  <line x1="37" y1="20" x2="30" y2="21" stroke="#888" stroke-width="0.7" opacity="0.8"/>
  <line x1="37" y1="22" x2="30" y2="22" stroke="#888" stroke-width="0.7" opacity="0.8"/>

  <ellipse cx="17" cy="39" rx="5" ry="3.5" fill="#c8a878"/>
  <line x1="14" y1="41" x2="13" y2="43" stroke="#a08050" stroke-width="0.8"/>
  <line x1="17" y1="42" x2="17" y2="44" stroke="#a08050" stroke-width="0.8"/>
  <line x1="20" y1="41" x2="21" y2="43" stroke="#a08050" stroke-width="0.8"/>

  <ellipse cx="34" cy="37" rx="5" ry="3.5" fill="#c8a878"/>

  <path d="M30 30 Q35 28 40 30 L39 39 Q35 43 31 39Z" fill="#704010" stroke="#402000" stroke-width="1"/>
  <path d="M31 31 Q35 29.5 39 31" fill="none" stroke="#a0a0a0" stroke-width="1.5" stroke-linecap="round"/>
  <circle cx="35" cy="35" r="2.5" fill="#a0a0a0" stroke="#606060" stroke-width="0.5"/>
  <line x1="31" y1="39" x2="30" y2="41" stroke="#a08050" stroke-width="0.8"/>
  <line x1="34" y1="40" x2="34" y2="42" stroke="#a08050" stroke-width="0.8"/>
  <line x1="37" y1="39" x2="38" y2="41" stroke="#a08050" stroke-width="0.8"/>
</svg>
