<svg xmlns="http://www.w3.org/2000/svg" viewBox="0 0 50 50" width="50" height="50">
  <ellipse cx="25" cy="46" rx="12" ry="3" fill="#00000044"/>

  <path d="M35 35 Q45 38 42 28" fill="none" stroke="#d09090" stroke-width="1.5" stroke-linecap="round"/>

  <ellipse cx="28" cy="31" rx="10" ry="13" fill="#555555"/>
  
  <circle cx="22" cy="19" r="8" fill="#555555"/>
  
  <ellipse cx="16" cy="23" rx="5" ry="3" fill="#d09090" opacity="0.7"/>
  <circle cx="12" cy="22" r="1" fill="#000"/> <circle cx="20" cy="19" r="1.5" fill="#ff0000"/>

  <circle cx="26" cy="13" r="4" fill="#555555"/>
  <circle cx="26" cy="13" r="2.5" fill="#d09090" opacity="0.5"/> <line x1="12" y1="15" x2="12" y2="44" stroke="#503010" stroke-width="1.8" transform="rotate(-15 12 15)"/>
  <path d="M12 10 L8 16 L16 16 Z" fill="#a0a0a0" stroke="#333" stroke-width="1.2" transform="rotate(-15 12 10)"/>
  <path d="M11 13 L9 15" fill="none" stroke="white" stroke-width="1" opacity="0.5" transform="rotate(-15 11 13)"/>

  <ellipse cx="22" cy="43" rx="4" ry="2.5" fill="#555555"/> <ellipse cx="32" cy="43" rx="4" ry="2.5" fill="#555555"/> </svg>
