<svg xmlns="http://www.w3.org/2000/svg" viewBox="0 0 50 50" width="50" height="50">
  <ellipse cx="25" cy="46" rx="12" ry="3" fill="#00000044"/>

  <ellipse cx="22" cy="30" rx="10" ry="14" fill="#c8a878"/>
  
  <path d="M15 25 Q22 22 29 25 L29 40 L15 40 Z" fill="#7a7a7a" stroke="#444" stroke-width="0.8"/>
  <ellipse cx="22" cy="30" rx="1" ry="1.5" fill="white" opacity="0.3"/> <circle cx="28" cy="18" r="9" fill="#c8a878"/>
  
  <ellipse cx="33" cy="22" rx="4" ry="2.5" fill="#f0e0b0"/>
  <circle cx="36" cy="21" r="1" fill="#000"/> <circle cx="30" cy="18" r="1.5" fill="#1a1a1a"/>

  <path d="M25 10 L20 2 L29 8 Z" fill="#c8a878" stroke="#aa8855" stroke-width="0.5"/>
  <path d="M25 9 L22 4 L28 7 Z" fill="#d0b090" opacity="0.6"/> <rect x="35" y="28" width="10" height="2.5" rx="1" fill="#8b5a2b" transform="rotate(10 35 28)"/>
  <rect x="34" y="26" width="2" height="6.5" rx="1" fill="#ffd700" transform="rotate(10 34 26)"/>
  <path d="M42 27 L41 12 L45 12 Z" fill="#a0a0a0" stroke="#444" stroke-width="1.2" transform="rotate(10 42 27)"/>
  <path d="M42 22 L41.5 15" fill="none" stroke="white" stroke-width="1.5" opacity="0.6" transform="rotate(10 42 22)"/>

  <ellipse cx="18" cy="43" rx="4" ry="2.5" fill="#c8a878"/> <ellipse cx="28" cy="43" rx="4" ry="2.5" fill="#c8a878"/> </svg>
