<svg xmlns="http://www.w3.org/2000/svg" viewBox="0 0 50 50" width="50" height="50">
  <ellipse cx="25" cy="44" rx="15" ry="4" fill="#00000033"/>

  <g transform="rotate(-45 25 25)">
    <path d="M22 10 L28 10 L29 35 L21 35 Z" fill="#a0a0a0" stroke="#444" stroke-width="1"/>
    <path d="M23 12 L22.5 30" fill="none" stroke="white" stroke-width="1.5" opacity="0.6"/>
    
    <rect x="18" y="33" width="14" height="3" rx="1" fill="#ffd700" stroke="#8a6c2a" stroke-width="1"/>
    
    <rect x="22" y="36" width="6" height="8" rx="1" fill="#8b5a2b" stroke="#5d3a1a" stroke-width="1"/>
    
    <circle cx="25" cy="46" r="2.5" fill="#ffd700" stroke="#8a6c2a" stroke-width="1"/>
  </g>

  <g transform="rotate(45 25 25)">
    <path d="M22 10 L28 10 L29 35 L21 35 Z" fill="#a0a0a0" stroke="#444" stroke-width="1"/>
    <path d="M23 12 L22.5 30" fill="none" stroke="white" stroke-width="1.5" opacity="0.6"/>
    
    <rect x="18" y="33" width="14" height="3" rx="1" fill="#ffd700" stroke="#8a6c2a" stroke-width="1"/>
    
    <rect x="22" y="36" width="6" height="8" rx="1" fill="#8b5a2b" stroke="#5d3a1a" stroke-width="1"/>
    
    <circle cx="25" cy="46" r="2.5" fill="#ffd700" stroke="#8a6c2a" stroke-width="1"/>
  </g>
  
  <circle cx="25" cy="25" r="3" fill="white">
    <animate attributeName="r" values="3;5;3" dur="1s" repeatCount="indefinite" />
    <animate attributeName="opacity" values="1;0.2;1" dur="1s" repeatCount="indefinite" />
  </circle>
</svg>
