<svg xmlns="http://www.w3.org/2000/svg" viewBox="0 0 50 50" width="50" height="50">
  <ellipse cx="25" cy="46" rx="14" ry="4" fill="#00000044"/>

  <path d="M20 5 L30 5 L31 8 L35 12 L39 20 L39 38 L35 44 L15 44 L11 38 L11 20 L15 12 L19 8 Z" fill="#1a1a1a" stroke="#333" stroke-width="1" stroke-linejoin="round"/>

  <path d="M21 7 L29 7 L30 9 L34 13 L37 20 L37 37 L34 42 L16 42 L13 37 L13 20 L16 13 L20 9 Z" fill="#2a3d3a" stroke="#444" stroke-width="0.5"/>

  <path d="M13 25 Q25 22 37 25 L37 37 L34 42 L16 42 L13 37 Z" fill="#32cd32"/>
  <path d="M16 28 Q25 26 34 28" fill="none" stroke="#adff2f" stroke-width="1.5" stroke-linecap="round" opacity="0.8"/>
  <circle cx="20" cy="33" r="1.5" fill="#adff2f" opacity="0.7"/>
  <circle cx="28" cy="36" r="1" fill="#adff2f" opacity="0.6"/>

  <rect x="21" y="4" width="8" height="6" rx="1" fill="#8b5a2b" stroke="#5d3a1a" stroke-width="1"/>
  <path d="M22 6 L28 6" fill="none" stroke="#5d3a1a" stroke-width="0.5"/>

  <ellipse cx="25" cy="20" rx="3.5" ry="4" fill="#f0e68c"/>
  <rect x="23" y="23" width="4" height="3" rx="1" fill="#f0e68c"/>
  <circle cx="23.5" cy="19.5" r="1" fill="#1a1a1a"/>
  <circle cx="26.5" cy="19.5" r="1" fill="#1a1a1a"/>
  <path d="M24 24 L26 24 M24 25.5 L26 25.5" fill="none" stroke="#1a1a1a" stroke-width="0.5"/>

  <path d="M16 15 L19 12 L19 18 Z" fill="white" opacity="0.6"/>
  <path d="M13 22 L15 20 L15 35 L13 33 Z" fill="white" opacity="0.3"/>
</svg>
